<svg xmlns="http://www.w3.org/2000/svg" xmlns:xlink="http://www.w3.org/1999/xlink" width="500" zoomAndPan="magnify" viewBox="0 0 375 374.999991" height="500" preserveAspectRatio="xMidYMid meet" version="1.0"><defs><filter x="0%" y="0%" width="100%" height="100%" id="47edb0a724"><feColorMatrix values="0 0 0 0 1 0 0 0 0 1 0 0 0 0 1 0 0 0 1 0" color-interpolation-filters="sRGB"/></filter><g/><mask id="ad2941e619"><g filter="url(#47edb0a724)"><rect x="-37.5" width="450" fill="#000000" y="-37.499999" height="449.999989" fill-opacity="0.93"/></g></mask><clipPath id="b0408cc1b0"><path d="M 15 0.5 L 108.5 0.5 L 108.5 120 L 15 120 Z M 15 0.5 " clip-rule="nonzero"/></clipPath><clipPath id="46a3813af1"><path d="M 0.5 30 L 94 30 L 94 150 L 0.5 150 Z M 0.5 30 " clip-rule="nonzero"/></clipPath><clipPath id="91dab1d5b0"><rect x="0" width="109" y="0" height="151"/></clipPath></defs><g mask="url(#ad2941e619)"><g transform="matrix(1, 0, 0, 1, 133, 112)"><g clip-path="url(#91dab1d5b0)"><g clip-path="url(#b0408cc1b0)"><path fill="#010101" d="M 30.546875 30.019531 C 30.546875 44.761719 30.546875 59.277344 30.546875 73.796875 C 30.734375 73.867188 30.917969 73.9375 31.105469 74.011719 C 38.824219 64.320312 46.546875 54.632812 54.546875 44.585938 C 57.394531 48.132812 60.125 51.53125 63.09375 55.226562 C 77.65625 36.929688 92.101562 18.78125 106.664062 0.480469 C 107.328125 1.011719 107.859375 1.4375 108.492188 1.945312 C 77.488281 40.921875 46.601562 79.757812 15.324219 119.085938 C 15.324219 89.023438 15.324219 59.59375 15.324219 30.019531 C 20.320312 30.019531 25.191406 30.019531 30.546875 30.019531 Z M 30.546875 30.019531 " fill-opacity="1" fill-rule="nonzero"/></g><g clip-path="url(#46a3813af1)"><path fill="#010101" d="M 93.765625 118.679688 C 82.453125 104.460938 71.492188 90.6875 60.289062 76.605469 C 59.4375 77.628906 58.6875 78.5 57.976562 79.394531 C 40.007812 102 22.042969 124.613281 4.042969 147.199219 C 3.25 148.191406 2.5 150.488281 0.515625 147.871094 C 23.105469 119.476562 45.707031 91.054688 68.570312 62.304688 C 71.757812 66.253906 74.792969 70.015625 78.179688 74.210938 C 78.308594 73.109375 78.449219 72.476562 78.449219 71.839844 C 78.460938 65.289062 78.378906 58.734375 78.515625 52.183594 C 78.542969 50.835938 79.050781 49.269531 79.867188 48.207031 C 84.289062 42.433594 88.875 36.785156 93.769531 30.636719 C 93.765625 60.140625 93.765625 89.089844 93.765625 118.679688 Z M 93.765625 118.679688 " fill-opacity="1" fill-rule="nonzero"/></g></g></g></g><g fill="#000000" fill-opacity="1"><g transform="translate(178.027812, 230.01489)"><g><path d="M 3.796875 -9.625 L 3.796875 0 L 3.328125 0 L 3.328125 -9.625 L 0.421875 -9.625 L 0.421875 -10.0625 L 6.703125 -10.0625 L 6.703125 -9.625 Z M 3.796875 -9.625 "/></g></g></g><g fill="#000000" fill-opacity="1"><g transform="translate(185.145859, 230.01489)"><g><path d="M 6.578125 -0.5625 C 6.203125 -0.34375 5.804688 -0.171875 5.390625 -0.046875 C 4.972656 0.078125 4.550781 0.140625 4.125 0.140625 C 3.6875 0.140625 3.273438 0.0703125 2.890625 -0.0625 C 2.515625 -0.195312 2.1875 -0.410156 1.90625 -0.703125 C 1.625 -1.003906 1.398438 -1.390625 1.234375 -1.859375 C 1.066406 -2.335938 0.984375 -2.914062 0.984375 -3.59375 C 0.984375 -4.15625 1.046875 -4.664062 1.171875 -5.125 C 1.296875 -5.582031 1.484375 -5.972656 1.734375 -6.296875 C 1.984375 -6.628906 2.296875 -6.882812 2.671875 -7.0625 C 3.054688 -7.238281 3.5 -7.328125 4 -7.328125 C 4.507812 -7.328125 4.941406 -7.234375 5.296875 -7.046875 C 5.660156 -6.867188 5.953125 -6.617188 6.171875 -6.296875 C 6.390625 -5.972656 6.546875 -5.585938 6.640625 -5.140625 C 6.742188 -4.691406 6.796875 -4.203125 6.796875 -3.671875 L 6.796875 -3.375 L 1.453125 -3.375 C 1.472656 -2.851562 1.546875 -2.394531 1.671875 -2 C 1.804688 -1.601562 1.988281 -1.28125 2.21875 -1.03125 C 2.457031 -0.78125 2.738281 -0.59375 3.0625 -0.46875 C 3.382812 -0.34375 3.742188 -0.28125 4.140625 -0.28125 C 4.503906 -0.28125 4.878906 -0.335938 5.265625 -0.453125 C 5.648438 -0.566406 6.03125 -0.738281 6.40625 -0.96875 Z M 4 -6.90625 C 3.175781 -6.90625 2.550781 -6.625 2.125 -6.0625 C 1.707031 -5.5 1.484375 -4.75 1.453125 -3.8125 L 6.34375 -3.8125 C 6.332031 -4.25 6.28125 -4.65625 6.1875 -5.03125 C 6.101562 -5.414062 5.96875 -5.742188 5.78125 -6.015625 C 5.601562 -6.285156 5.367188 -6.5 5.078125 -6.65625 C 4.785156 -6.820312 4.425781 -6.90625 4 -6.90625 Z M 4 -6.90625 "/></g></g></g><g fill="#000000" fill-opacity="1"><g transform="translate(192.939761, 230.01489)"><g><path d="M 6.703125 -1.671875 C 6.484375 -1.097656 6.148438 -0.648438 5.703125 -0.328125 C 5.253906 -0.015625 4.6875 0.140625 4 0.140625 C 3.5 0.140625 3.0625 0.0507812 2.6875 -0.125 C 2.3125 -0.300781 1.992188 -0.550781 1.734375 -0.875 C 1.484375 -1.207031 1.296875 -1.601562 1.171875 -2.0625 C 1.046875 -2.53125 0.984375 -3.039062 0.984375 -3.59375 C 0.984375 -4.15625 1.046875 -4.664062 1.171875 -5.125 C 1.296875 -5.582031 1.484375 -5.972656 1.734375 -6.296875 C 1.992188 -6.628906 2.3125 -6.882812 2.6875 -7.0625 C 3.0625 -7.238281 3.5 -7.328125 4 -7.328125 C 4.625 -7.328125 5.15625 -7.1875 5.59375 -6.90625 C 6.03125 -6.625 6.363281 -6.226562 6.59375 -5.71875 L 6.203125 -5.5 C 6.015625 -5.9375 5.738281 -6.28125 5.375 -6.53125 C 5.019531 -6.78125 4.5625 -6.90625 4 -6.90625 C 3.5625 -6.90625 3.1875 -6.820312 2.875 -6.65625 C 2.5625 -6.5 2.296875 -6.273438 2.078125 -5.984375 C 1.867188 -5.703125 1.710938 -5.359375 1.609375 -4.953125 C 1.503906 -4.546875 1.453125 -4.09375 1.453125 -3.59375 C 1.453125 -3.09375 1.503906 -2.640625 1.609375 -2.234375 C 1.710938 -1.828125 1.867188 -1.476562 2.078125 -1.1875 C 2.296875 -0.90625 2.5625 -0.679688 2.875 -0.515625 C 3.1875 -0.359375 3.5625 -0.28125 4 -0.28125 C 4.582031 -0.28125 5.054688 -0.414062 5.421875 -0.6875 C 5.785156 -0.957031 6.0625 -1.332031 6.25 -1.8125 Z M 6.703125 -1.671875 "/></g></g></g><g fill="#000000" fill-opacity="1"><g transform="translate(200.302267, 230.01489)"><g><path d="M 1.75 0 L 1.296875 0 L 1.296875 -10.5 L 1.75 -10.5 L 1.75 -5.703125 C 2.03125 -6.191406 2.367188 -6.582031 2.765625 -6.875 C 3.171875 -7.175781 3.6875 -7.328125 4.3125 -7.328125 C 4.976562 -7.328125 5.503906 -7.132812 5.890625 -6.75 C 6.285156 -6.375 6.484375 -5.742188 6.484375 -4.859375 L 6.484375 0 L 6.015625 0 L 6.015625 -4.859375 C 6.015625 -5.554688 5.859375 -6.070312 5.546875 -6.40625 C 5.234375 -6.738281 4.816406 -6.90625 4.296875 -6.90625 C 3.941406 -6.90625 3.609375 -6.832031 3.296875 -6.6875 C 2.984375 -6.539062 2.710938 -6.332031 2.484375 -6.0625 C 2.253906 -5.800781 2.070312 -5.476562 1.9375 -5.09375 C 1.8125 -4.71875 1.75 -4.285156 1.75 -3.796875 Z M 1.75 0 "/></g></g></g></svg>